<svg xmlns="http://www.w3.org/2000/svg" width="24" height="24" viewBox="0 0 24 24" fill="none">
    <path d="M17.25 2.75C17.3163 2.75 17.3799 2.77636 17.4268 2.82324C17.4736 2.87012 17.5 2.93369 17.5 3V5H18.75C19.413 5 20.0487 5.26358 20.5176 5.73242C20.9864 6.20126 21.25 6.83696 21.25 7.5V18.75C21.25 19.413 20.9864 20.0487 20.5176 20.5176C20.0487 20.9864 19.413 21.25 18.75 21.25H5.25C4.58696 21.25 3.95126 20.9864 3.48242 20.5176C3.01358 20.0487 2.75 19.413 2.75 18.75V7.5C2.75 6.83696 3.01358 6.20126 3.48242 5.73242C3.95126 5.26358 4.58696 5 5.25 5H6.5V3C6.5 2.9337 6.52636 2.87013 6.57324 2.82324C6.62013 2.77636 6.6837 2.75 6.75 2.75C6.8163 2.75 6.87987 2.77636 6.92676 2.82324C6.97364 2.87013 7 2.9337 7 3V5H17V3C17 2.93369 17.0264 2.87012 17.0732 2.82324C17.1201 2.77636 17.1837 2.75 17.25 2.75ZM5.25 9.25C4.71957 9.25 4.21101 9.46087 3.83594 9.83594C3.46086 10.211 3.25 10.7196 3.25 11.25V18.75C3.25 19.2804 3.46087 19.789 3.83594 20.1641C4.21101 20.5391 4.71957 20.75 5.25 20.75H18.75C19.2804 20.75 19.789 20.5391 20.1641 20.1641C20.5391 19.789 20.75 19.2804 20.75 18.75V11.25C20.75 10.7196 20.5391 10.211 20.1641 9.83594C19.789 9.46087 19.2804 9.25 18.75 9.25H5.25Z" fill="#3D3D3D" stroke="#3D3D3D"/>
</svg>