<svg xmlns="http://www.w3.org/2000/svg" width="24" height="24" viewBox="0 0 24 24" fill="none">
    <path d="M12 2.75C14.1047 2.75 16.1766 2.88504 18.21 3.14551L19.0791 3.26465C20.7938 3.51784 22 5.02361 22 6.74023V12.7598C22 14.4228 20.868 15.8879 19.2383 16.208L19.0791 16.2354C17.9373 16.4027 16.7895 16.529 15.6387 16.6143C15.5388 16.6213 15.4411 16.6452 15.3496 16.6846L15.2598 16.7295C15.1424 16.7967 15.0418 16.8901 14.9658 17.002L14.9629 17.0059L12.208 21.1387C12.1852 21.1729 12.1544 21.2013 12.1182 21.2207C12.0819 21.2401 12.0412 21.25 12 21.25C11.9588 21.25 11.9181 21.2401 11.8818 21.2207C11.8636 21.211 11.8472 21.1984 11.832 21.1846L11.792 21.1387L9.03711 17.0059L9.03418 17.002C8.95815 16.8901 8.8576 16.7967 8.74023 16.7295C8.6239 16.663 8.49402 16.6236 8.36035 16.6143H8.36133C7.21043 16.5286 6.06273 16.402 4.9209 16.2344C3.20694 15.9831 2 14.4759 2 12.7588V6.74121C2 5.02413 3.20694 3.51691 4.9209 3.26562C6.97175 2.96461 9.03944 2.79503 11.1113 2.75781L12 2.75ZM7.5 10C7.16848 10 6.85063 10.1318 6.61621 10.3662C6.38179 10.6006 6.25 10.9185 6.25 11.25C6.25 11.5815 6.38179 11.8994 6.61621 12.1338C6.85063 12.3682 7.16848 12.5 7.5 12.5H12C12.3315 12.5 12.6494 12.3682 12.8838 12.1338C13.1182 11.8994 13.25 11.5815 13.25 11.25C13.25 10.9185 13.1182 10.6006 12.8838 10.3662C12.6494 10.1318 12.3315 10 12 10H7.5ZM7.5 7C7.16848 7 6.85063 7.13179 6.61621 7.36621C6.38179 7.60063 6.25 7.91848 6.25 8.25C6.25 8.58152 6.38179 8.89937 6.61621 9.13379C6.85063 9.36821 7.16848 9.5 7.5 9.5H16.5C16.8315 9.5 17.1494 9.36821 17.3838 9.13379C17.6182 8.89937 17.75 8.58152 17.75 8.25C17.75 7.91848 17.6182 7.60063 17.3838 7.36621C17.1494 7.13179 16.8315 7 16.5 7H7.5Z" fill="#F6F6F6" stroke="#F6F6F6"/>
</svg>