<svg xmlns="http://www.w3.org/2000/svg" width="24" height="24" viewBox="0 0 24 24" fill="none">
    <path d="M12 2.75C17.1089 2.75 21.25 6.89114 21.25 12C21.25 17.1089 17.1089 21.25 12 21.25C6.89114 21.25 2.75 17.1089 2.75 12C2.75 6.89114 6.89114 2.75 12 2.75ZM15.2852 8.5166C15.1228 8.47999 14.9548 8.47572 14.791 8.50488C14.627 8.53413 14.4699 8.59593 14.3301 8.68652C14.2252 8.75449 14.1317 8.83812 14.0518 8.93359L13.9834 9.02344L11.0898 13.0723L9.88379 11.8662L9.87695 11.8604L9.87109 11.8545L9.77832 11.7764C9.55528 11.6056 9.28026 11.5137 8.99707 11.5186C8.67323 11.5243 8.36379 11.6557 8.13477 11.8848C7.90574 12.1138 7.77427 12.4232 7.76855 12.7471C7.76295 13.0708 7.88379 13.3842 8.10449 13.6211L8.11035 13.627L8.11621 13.6338L10.3662 15.8838C10.4945 16.012 10.65 16.1104 10.8203 16.1729C10.9905 16.2352 11.172 16.26 11.3525 16.2451C11.5333 16.2302 11.7094 16.1764 11.8672 16.0869C11.9854 16.0198 12.0914 15.9338 12.1816 15.833L12.2666 15.7266L16.0166 10.4766L16.0156 10.4756C16.112 10.3446 16.1832 10.1968 16.2227 10.0391C16.2631 9.87754 16.2705 9.70947 16.2451 9.54492C16.2197 9.38038 16.1615 9.22285 16.0742 9.08105C15.9869 8.93923 15.8728 8.81561 15.7373 8.71875C15.6018 8.62188 15.4477 8.55329 15.2852 8.5166Z" fill="#39B230" stroke="#39B230"/>
</svg>