<svg xmlns="http://www.w3.org/2000/svg" width="24" height="24" viewBox="0 0 24 24" fill="none">
    <path d="M15.7637 4.23129C15.7972 4.23071 15.8303 4.23733 15.8613 4.24985C15.8924 4.26238 15.9206 4.28091 15.9443 4.30453C15.9681 4.32826 15.9874 4.35644 16 4.38754C16.0126 4.41867 16.0182 4.45261 16.0176 4.48618C16.0169 4.51957 16.0097 4.55235 15.9961 4.58286C15.9825 4.61346 15.963 4.64105 15.9385 4.66391L15.9316 4.66977L15.9258 4.67661L8.60254 11.9998L15.9258 19.3231L15.9316 19.3299L15.9385 19.3358C15.963 19.3586 15.9824 19.3863 15.9961 19.4168C16.0098 19.4475 16.017 19.4809 16.0176 19.5145C16.0181 19.5479 16.0125 19.5811 16 19.6122C15.9875 19.6431 15.9689 19.6715 15.9453 19.6952C15.9216 19.7189 15.8925 19.7382 15.8613 19.7508C15.8303 19.7633 15.7971 19.769 15.7637 19.7684C15.7301 19.7678 15.6967 19.7606 15.666 19.7469C15.6355 19.7333 15.6078 19.7138 15.585 19.6893L15.5791 19.6825L8.07324 12.1766C8.02643 12.1297 8 12.0661 8 11.9998C8.00004 11.9337 8.02646 11.8699 8.07324 11.8231L15.5791 4.31723L15.585 4.31039C15.6078 4.28595 15.6355 4.26641 15.666 4.25278C15.6967 4.23911 15.7301 4.23188 15.7637 4.23129Z" fill="#3D3D3D" stroke="#3D3D3D"/>
</svg>