<svg xmlns="http://www.w3.org/2000/svg" width="24" height="24" viewBox="0 0 24 24" fill="none">
    <path d="M9.375 2H9.75C10.612 2 11.4384 2.34266 12.0479 2.95215C12.6573 3.56164 13 4.38805 13 5.25V7.125C13 8.43732 14.064 9.5 15.375 9.5H17.25C18.112 9.5 18.9384 9.84266 19.5479 10.4521C20.1573 11.0616 20.5 11.888 20.5 12.75V16.125C20.5 16.8839 19.8839 17.5 19.125 17.5H9.375C9.01033 17.5 8.66021 17.3555 8.40234 17.0977C8.14448 16.8398 8 16.4897 8 16.125V3.375C8 2.61532 8.61597 2 9.375 2Z" fill="#1A1A1A" stroke="#1A1A1A"/>
    <path d="M15 5.25001C15.0018 3.98856 14.5475 2.76897 13.721 1.81601C15.3943 2.25597 16.9207 3.13248 18.1441 4.3559C19.3675 5.57931 20.244 7.10572 20.684 8.77901C19.731 7.95249 18.5115 7.49826 17.25 7.50001H15.375C15.2755 7.50001 15.1802 7.4605 15.1098 7.39017C15.0395 7.31985 15 7.22447 15 7.12501V5.25001ZM4.875 6.00001H6V16.125C6 17.0201 6.35558 17.8786 6.98851 18.5115C7.62145 19.1444 8.47989 19.5 9.375 19.5H16.5V20.625C16.5 21.66 15.66 22.5 14.625 22.5H4.875C4.37772 22.5 3.90081 22.3025 3.54917 21.9508C3.19754 21.5992 3 21.1223 3 20.625V7.87501C3 6.83901 3.84 6.00001 4.875 6.00001Z" fill="black"/>
</svg>