<svg width="24" height="24" viewBox="0 0 24 24" fill="none" xmlns="http://www.w3.org/2000/svg">
    <path d="M15.7501 5.31249C16.5457 5.31249 17.3088 5.62551 17.8714 6.1827C18.434 6.73989 18.7501 7.4956 18.7501 8.28358M21.7501 8.28358C21.7502 9.15026 21.5589 10.0065 21.1896 10.7922C20.8203 11.5779 20.2819 12.2741 19.6122 12.832C18.9424 13.3899 18.1576 13.7959 17.3127 14.0216C16.4678 14.2473 15.5832 14.2872 14.7211 14.1386C14.1581 14.0425 13.5621 14.1644 13.1581 14.5645L10.5 17.1969H8.25003V19.4252H6.00002V21.6535H2.25V18.8627C2.25 18.2714 2.487 17.7039 2.909 17.287L9.40804 10.8506C9.81204 10.4505 9.93504 9.86024 9.83804 9.30267C9.69624 8.49172 9.72607 7.66045 9.92567 6.86152C10.1253 6.0626 10.4903 5.31345 10.9975 4.66155C11.5048 4.00965 12.1433 3.46921 12.8725 3.0745C13.6017 2.67978 14.4057 2.43939 15.2337 2.36856C16.0616 2.29773 16.8954 2.398 17.6822 2.66302C18.4689 2.92805 19.1915 3.35204 19.8042 3.90813C20.4168 4.46422 20.9061 5.14029 21.2411 5.89348C21.576 6.64667 21.7494 7.46057 21.7501 8.28358Z" stroke="#3D3D3D" stroke-width="1.5" stroke-linecap="round" stroke-linejoin="round"/>
</svg>
