<svg width="24" height="24" viewBox="0 0 24 24" fill="none" xmlns="http://www.w3.org/2000/svg">
    <path d="M21.5039 6.501C21.504 7.12435 21.3745 7.74091 21.1238 8.3116C20.873 8.88229 20.5064 9.39467 20.0473 9.81624C19.5881 10.2378 19.0463 10.5594 18.4563 10.7606C17.8664 10.9618 17.241 11.0382 16.6199 10.985C15.5439 10.894 14.3559 11.056 13.6699 11.889L6.51793 20.573C6.29232 20.848 6.01163 21.0727 5.69392 21.2327C5.37622 21.3927 5.02854 21.4844 4.67326 21.5018C4.31798 21.5193 3.96298 21.4622 3.6311 21.3342C3.29922 21.2062 2.99782 21.0102 2.74629 20.7586C2.49477 20.5071 2.2987 20.2057 2.17069 19.8738C2.04269 19.5419 1.98559 19.1869 2.00308 18.8317C2.02057 18.4764 2.11225 18.1287 2.27222 17.811C2.4322 17.4933 2.65692 17.2126 2.93193 16.987L11.6159 9.835C12.4489 9.149 12.6109 7.961 12.5199 6.885C12.4528 6.10317 12.5913 5.31737 12.9216 4.60559C13.252 3.89381 13.7627 3.28078 14.4031 2.82734C15.0436 2.37391 15.7914 2.09582 16.5725 2.02068C17.3536 1.94554 18.1408 2.07596 18.8559 2.399L15.5799 5.675C15.7067 6.22309 15.9848 6.72458 16.3826 7.12237C16.7803 7.52016 17.2818 7.79826 17.8299 7.925L21.1059 4.649C21.3619 5.214 21.5039 5.841 21.5039 6.501Z" stroke="#3D3D3D" stroke-width="1.5" stroke-linecap="round" stroke-linejoin="round"/>
    <path d="M4.62093 18.876H4.62893V18.884H4.62093V18.876Z" stroke="#3D3D3D" stroke-width="1.5" stroke-linecap="round" stroke-linejoin="round"/>
</svg>
