<svg width="24" height="24" viewBox="0 0 24 24" fill="none" xmlns="http://www.w3.org/2000/svg">
    <path d="M10.3613 3.29523C11.4981 3.29523 12.5713 3.79959 13.2979 4.66144L13.5615 4.97394L13.9199 4.77765C14.4811 4.47055 15.1095 4.30992 15.7588 4.30988C17.3929 4.30988 18.8419 5.34801 19.3789 6.86749L19.4912 7.18585L19.8281 7.2005C21.8671 7.28884 23.5 8.97626 23.5 11.0364L23.4951 11.2278C23.4733 11.6728 23.3741 12.1111 23.2012 12.5228C23.0035 12.9933 22.7135 13.4197 22.3486 13.7767L22.1055 14.015L22.2373 14.3284C22.4342 14.7963 22.5342 15.2921 22.5342 15.8089C22.5341 17.537 21.3617 19.0453 19.7354 19.5042L19.625 19.5355L19.5391 19.6116C18.5372 20.5011 17.3135 20.7398 16.1504 20.6575C14.9803 20.5747 13.9139 20.168 13.3047 19.8265L13.0117 19.6624L12.749 19.8714C12.0717 20.4111 11.2368 20.7044 10.3613 20.7044C9.15015 20.7044 8.0086 20.1243 7.28809 19.1644L6.99121 18.7698L6.59277 19.0609C5.95958 19.5229 5.21008 19.7767 4.41797 19.7913L4.0752 19.7825L3.90039 19.7669C3.03062 19.6679 2.21755 19.269 1.59473 18.6302C0.930621 17.9489 0.544153 17.0574 0.503906 16.1204C0.475556 15.46 0.615832 14.8094 0.910156 14.2259L1.02344 14.0013L0.910156 13.7767C0.640688 13.2412 0.500143 12.6495 0.5 12.0501L0.508789 11.7903C0.59433 10.5012 1.31258 9.35493 2.43945 8.71417L2.64258 8.59894L2.68457 8.36945C3.0138 6.56276 4.60259 5.22305 6.45996 5.22296C6.54228 5.22296 6.62748 5.22579 6.71387 5.23175L7.00293 5.25128L7.16406 5.01007C7.87284 3.94623 9.07649 3.29525 10.3613 3.29523Z" stroke="#3D3D3D" stroke-linecap="round"/>
</svg>
