<svg width="24" height="24" viewBox="0 0 24 24" fill="none" xmlns="http://www.w3.org/2000/svg">
    <path d="M15.5 4.99485C16.2956 4.99485 17.0587 5.31092 17.6213 5.87353C18.1839 6.43614 18.5 7.1992 18.5 7.99485M21.5 7.99485C21.5001 8.86996 21.3088 9.73451 20.9395 10.5279C20.5702 11.3212 20.0318 12.0242 19.3621 12.5875C18.6924 13.1508 17.9075 13.5608 17.0626 13.7887C16.2177 14.0166 15.3331 14.0569 14.471 13.9068C13.908 13.8098 13.312 13.9328 12.908 14.3368L10.25 16.9948H8V19.2448H5.75V21.4948H2V18.6768C2 18.0798 2.237 17.5068 2.659 17.0858L9.158 10.5868C9.562 10.1828 9.685 9.58685 9.588 9.02385C9.4462 8.20501 9.47604 7.36565 9.67563 6.55895C9.87522 5.75225 10.2402 4.99581 10.7475 4.33757C11.2547 3.67933 11.8932 3.13364 12.6224 2.73508C13.3516 2.33653 14.1557 2.0938 14.9836 2.02228C15.8116 1.95076 16.6453 2.05201 17.4321 2.31961C18.2188 2.58721 18.9414 3.01533 19.5541 3.57683C20.1667 4.13833 20.656 4.82097 20.991 5.58149C21.3259 6.34201 21.4993 7.16383 21.5 7.99485Z" fill="#FBD04E"/>
    <path d="M15.5 4.99485C16.2956 4.99485 17.0587 5.31092 17.6213 5.87353C18.1839 6.43614 18.5 7.1992 18.5 7.99485M21.5 7.99485C21.5001 8.86996 21.3088 9.73451 20.9395 10.5279C20.5702 11.3212 20.0318 12.0242 19.3621 12.5875C18.6924 13.1508 17.9075 13.5608 17.0626 13.7887C16.2177 14.0166 15.3331 14.0569 14.471 13.9068C13.908 13.8098 13.312 13.9328 12.908 14.3368L10.25 16.9948H8V19.2448H5.75V21.4948H2V18.6768C2 18.0798 2.237 17.5068 2.659 17.0858L9.158 10.5868C9.562 10.1828 9.685 9.58685 9.588 9.02385C9.4462 8.20501 9.47604 7.36565 9.67563 6.55895C9.87522 5.75226 10.2402 4.99581 10.7475 4.33757C11.2547 3.67933 11.8932 3.13364 12.6224 2.73508C13.3516 2.33653 14.1557 2.0938 14.9836 2.02228C15.8116 1.95076 16.6453 2.05201 17.4321 2.31961C18.2188 2.58721 18.9414 3.01533 19.5541 3.57683C20.1667 4.13833 20.656 4.82097 20.991 5.58149C21.3259 6.34201 21.4993 7.16383 21.5 7.99485Z" stroke="#3D3D3D" stroke-width="1.5" stroke-linecap="round" stroke-linejoin="round"/>
</svg>
