<svg width="24" height="19" viewBox="0 0 24 19" fill="none" xmlns="http://www.w3.org/2000/svg">
    <path d="M10.3614 18.4095C11.3501 18.4095 12.2943 18.0775 13.0602 17.4673C14.388 18.2117 17.609 19.1984 19.871 17.1903C21.7096 16.6716 23.0342 14.969 23.0342 13.0135C23.0342 12.4309 22.9214 11.8692 22.6983 11.3391C23.1109 10.9355 23.4386 10.4536 23.6621 9.92149C23.8856 9.38943 24.0005 8.81803 24 8.24092C24 5.91171 22.1553 4.00521 19.8502 3.90534C19.243 2.18726 17.6064 1.0144 15.7591 1.0144C15.0262 1.0144 14.3151 1.19646 13.6799 1.54413C12.859 0.57043 11.6466 0 10.3614 0C8.908 0 7.54877 0.735685 6.74799 1.93762C6.65054 1.9309 6.55432 1.92754 6.46015 1.92754C4.36012 1.92754 2.5646 3.44099 2.19222 5.4844C0.834166 6.25661 0 7.68108 0 9.25524C0.000161087 9.9327 0.158859 10.6007 0.463401 11.2059C0.130407 11.866 -0.0279078 12.6009 0.00409118 13.3464C0.0496058 14.4077 0.487218 15.4154 1.23627 16.1838C1.98569 16.9526 2.98205 17.4151 4.04181 17.4861C5.07594 17.5559 6.06842 17.2676 6.8879 16.6694C7.70168 17.7537 8.99092 18.4095 10.3614 18.4095Z" fill="#FD919E"/>
    <path d="M0 9.25524C0 7.68108 0.834166 6.25661 2.19222 5.4844C2.5646 3.44099 4.36012 1.92754 6.46015 1.92754L6.74799 1.93762C7.54877 0.735685 8.908 0 10.3614 0C11.6466 0 12.859 0.57043 13.6799 1.54413C14.3151 1.19646 15.0262 1.0144 15.7591 1.0144L16.1027 1.02832C17.8069 1.16339 19.2809 2.29457 19.8502 3.90534C22.1553 4.00521 24 5.91171 24 8.24092C24.0005 8.81803 23.8856 9.38943 23.6621 9.92149L23.5734 10.1182C23.3553 10.5725 23.0594 10.9859 22.6983 11.3391C22.9214 11.8692 23.0342 12.4309 23.0342 13.0135L23.0304 13.1963C22.9509 15.0743 21.652 16.6878 19.871 17.1903C17.609 19.1984 14.388 18.2117 13.0602 17.4673C12.2943 18.0775 11.3501 18.4095 10.3614 18.4095C8.99092 18.4095 7.70168 17.7537 6.8879 16.6694C6.11975 17.23 5.1994 17.5188 4.23548 17.4951L4.04181 17.4861C3.04831 17.4195 2.11085 17.0087 1.38001 16.3242L1.23627 16.1838C0.534148 15.4635 0.106074 14.5329 0.0177033 13.5449L0.00409118 13.3464C-0.0279078 12.6009 0.130407 11.866 0.463401 11.2059C0.158859 10.6007 0.000161087 9.9327 0 9.25524ZM16.7765 6.25781C17.0235 6.13432 17.3239 6.23446 17.4474 6.48145C17.5707 6.72839 17.4707 7.02889 17.2238 7.15234C16.9243 7.30218 16.7354 7.61626 16.6847 8.06543C16.6452 8.41616 16.7 8.80132 16.8214 9.13574C17.0987 9.13689 17.3658 9.16286 17.6085 9.2168C17.8781 9.2767 18.0483 9.54391 17.9884 9.81348C17.9284 10.0829 17.6612 10.2523 17.3917 10.1924C17.1586 10.1406 16.863 10.1212 16.5363 10.1445C15.8438 10.1941 15.101 10.4308 14.5929 10.8467C14.1127 11.2397 13.8284 11.796 13.9904 12.6064C14.0445 12.8771 13.8693 13.141 13.5988 13.1953C13.328 13.2495 13.064 13.0735 13.0099 12.8027C12.7685 11.5958 13.2203 10.677 13.9591 10.0723C14.4879 9.63944 15.1545 9.37181 15.8048 9.23828C15.6882 8.82518 15.6428 8.37878 15.6906 7.9541C15.7649 7.29342 16.0763 6.60801 16.7765 6.25781ZM12.0001 5.70508C12.0001 4.3817 12.3121 3.39183 12.8146 2.67578L12.7999 2.65723C12.2452 1.85513 11.3333 1.37695 10.3615 1.37695C9.30442 1.37698 8.31807 1.94828 7.79016 2.86816C7.69749 3.02899 7.55907 3.15987 7.3927 3.24219C7.22622 3.32453 7.03879 3.35506 6.85462 3.33105H6.85266C6.72221 3.31355 6.59073 3.3051 6.45911 3.30469C5.16297 3.30519 4.03589 4.15039 3.64466 5.34277C4.17458 5.27628 4.76192 5.29019 5.34388 5.41602C6.55667 5.67836 7.78713 6.43758 8.46009 8.00781C8.56874 8.26151 8.45099 8.55521 8.19739 8.66406C7.94358 8.77284 7.64992 8.65518 7.54114 8.40137C7.01417 7.17188 6.07733 6.59796 5.13196 6.39355C4.42981 6.24176 3.74279 6.29981 3.24036 6.44238C3.17282 6.5073 3.09712 6.56408 3.01282 6.60645C2.00248 7.11379 1.37721 8.12709 1.37708 9.25488C1.37711 9.77483 1.51347 10.2861 1.77356 10.7363C1.85617 10.8792 1.89956 11.0411 1.89954 11.2061C1.89951 11.371 1.85619 11.533 1.77356 11.6758C1.49164 12.1628 1.35479 12.7197 1.37903 13.2871C1.4427 14.7689 2.65745 16.0133 4.13391 16.1123L4.28821 16.1191C4.38871 16.1208 4.48836 16.1164 4.58704 16.1084C5.01968 15.9877 5.55681 15.7474 6.09095 15.3525C6.89452 14.7583 7.65425 13.8463 8.01966 12.5674C8.09554 12.3019 8.37232 12.1478 8.63782 12.2236C8.90321 12.2995 9.05633 12.5764 8.98059 12.8418C8.69092 13.8557 8.19028 14.6762 7.60657 15.3203C7.6557 15.3638 7.70036 15.4121 7.73938 15.4648L7.797 15.5527L7.90149 15.7197C8.44968 16.5343 9.37588 17.0332 10.3615 17.0332C11.1287 17.0332 11.8559 16.7404 12.4113 16.208C12.586 16.0405 12.8186 15.9471 13.0607 15.9473L13.1476 15.9512C13.3514 15.9702 13.5505 16.0562 13.7091 16.208C13.7888 16.2844 14.0419 16.4334 14.4708 16.5791C14.8786 16.7176 15.3886 16.8342 15.9288 16.8828C17.0339 16.9822 18.1362 16.7891 18.8175 16.0928L18.9366 15.9707L19.1066 15.9473C20.5589 15.7456 21.6572 14.4834 21.6574 13.0137C21.6574 12.5372 21.5475 12.0835 21.3302 11.6611C21.2328 11.4719 21.2032 11.2546 21.2452 11.0459L21.2892 10.8936C21.346 10.7464 21.4395 10.6152 21.5616 10.5127L21.6847 10.4033C22.2835 9.84309 22.6231 9.06458 22.6232 8.24121C22.6232 6.60787 21.2936 5.27832 19.6603 5.27832C19.6403 5.27832 19.6188 5.27826 19.588 5.2793H19.5792L19.5802 5.28027H19.5616L19.5558 5.28125C19.1259 5.29284 18.7351 5.01057 18.6212 4.58594C18.2756 3.29455 17.098 2.39062 15.7589 2.39062C15.1625 2.39068 14.5892 2.56677 14.0988 2.89941C14.0093 2.96011 13.9104 3.00255 13.8077 3.0293C13.3418 3.55925 13.0001 4.39289 13.0001 5.70508C12.9999 5.98107 12.7762 6.20508 12.5001 6.20508C12.2241 6.20502 12.0003 5.98103 12.0001 5.70508Z" fill="#3D3D3D"/>
</svg>