<svg width="24" height="24" viewBox="0 0 24 24" fill="none" xmlns="http://www.w3.org/2000/svg">
    <path fill-rule="evenodd" clip-rule="evenodd" d="M17 10.25H8H7.25C6.65326 10.25 6.08097 10.4871 5.65901 10.909C5.23705 11.331 5 11.9033 5 12.5V19.25C5 19.8467 5.23705 20.419 5.65901 20.841C6.08097 21.2629 6.65326 21.5 7.25 21.5H17.75C18.3467 21.5 18.919 21.2629 19.341 20.841C19.7629 20.419 20 19.8467 20 19.25V12.5C20 11.9033 19.7629 11.331 19.341 10.909C18.919 10.4871 18.3467 10.25 17.75 10.25H17Z" fill="#FFA726"/>
    <path d="M17 10.25V6.5C17 5.30653 16.5259 4.16193 15.682 3.31802C14.8381 2.47411 13.6935 2 12.5 2C11.3065 2 10.1619 2.47411 9.31802 3.31802C8.47411 4.16193 8 5.30653 8 6.5V10.25M17 10.25H8M17 10.25H17.75M8 10.25H7.25M17.75 10.25C18.3467 10.25 18.919 10.4871 19.341 10.909C19.7629 11.331 20 11.9033 20 12.5V19.25C20 19.8467 19.7629 20.419 19.341 20.841C18.919 21.2629 18.3467 21.5 17.75 21.5H7.25C6.65326 21.5 6.08097 21.2629 5.65901 20.841C5.23705 20.419 5 19.8467 5 19.25V12.5C5 11.9033 5.23705 11.331 5.65901 10.909C6.08097 10.4871 6.65326 10.25 7.25 10.25M17.75 10.25H7.25" stroke="#3D3D3D" stroke-width="1.5" stroke-linecap="round" stroke-linejoin="round"/>
</svg>