<svg width="24" height="24" viewBox="0 0 24 24" fill="none" xmlns="http://www.w3.org/2000/svg">
    <path d="M9.15039 10.4106L9.15137 10.4242L9.16406 10.4272C10.4275 10.7425 11.5581 11.3708 12.4521 12.2172C12.949 12.6858 13.3739 13.2241 13.71 13.8129L13.7168 13.8246L13.7305 13.8217L17.9316 12.9203C18.3856 12.8219 18.8442 13.0692 18.9873 13.4858L21.7158 21.4164L21.7227 21.434L21.7402 21.4281L22.7949 21.0951C23.2667 20.9458 23.7765 21.189 23.9346 21.6352C24.0906 22.0798 23.8373 22.5617 23.3643 22.7113L21.4316 23.3207C21.2029 23.3929 20.9562 23.3764 20.7412 23.2738C20.526 23.171 20.3639 22.9925 20.29 22.7768L17.5352 14.768L17.5293 14.7524L17.5127 14.7563L14.3896 15.4262L14.3701 15.4301L14.375 15.4496C14.5105 15.9755 14.5849 16.5249 14.585 17.0893C14.585 18.9898 13.7691 20.7168 12.4521 21.9623C11.1367 23.2087 9.31129 23.9814 7.30078 23.9809C5.2918 23.9813 3.46689 23.2086 2.15137 21.9623C0.834835 20.7168 0.0195312 18.9898 0.0195312 17.0893C0.0196005 15.1885 0.835026 13.462 2.15137 12.2172C2.51847 11.8694 2.92761 11.5616 3.36719 11.2943L3.23633 11.4457C3.04635 11.6661 2.95553 11.9552 2.9873 12.2397C3.01129 12.4541 3.10701 12.6567 3.25293 12.8197C3.17211 12.8884 3.09311 12.9593 3.01562 13.0317C1.918 14.072 1.23989 15.503 1.23926 17.0893C1.23983 18.6761 1.91799 20.1064 3.01562 21.1469C4.11496 22.186 5.62591 22.8263 7.30078 22.8276C7.30538 22.8276 7.31071 22.8278 7.31445 22.8276C7.31822 22.8273 7.32127 22.8266 7.32422 22.8266C7.32711 22.8266 7.33023 22.8273 7.33398 22.8276C7.33756 22.8278 7.34232 22.8275 7.34668 22.8276C9.02275 22.8265 10.5347 22.1862 11.6338 21.1469C12.7318 20.1064 13.4087 18.6762 13.4092 17.0893C13.4092 16.6112 13.3468 16.1479 13.2305 15.7045C13.077 15.1181 12.8296 14.5677 12.502 14.0688C12.2548 13.6922 11.9627 13.3438 11.6338 13.0317C10.9896 12.4229 10.2039 11.9534 9.32715 11.6664C8.73765 11.474 8.10678 11.3643 7.4502 11.3539C7.43333 11.3537 7.41651 11.3535 7.39941 11.3529C7.3824 11.3524 7.3647 11.352 7.34668 11.352H7.30078C6.90968 11.352 6.5276 11.3885 6.15723 11.4555L7.24219 10.1996L7.30176 10.1986H7.32422L7.32324 10.1781L7.31738 10.1137L8.84668 8.34513C8.89262 8.29229 8.92949 8.23473 8.96289 8.17619L9.15039 10.4106Z" fill="#3D3D3D" stroke="#3D3D3D" stroke-width="0.0383654"/>
    <path d="M7.74707 0.0195312C9.85111 0.0195312 11.5547 1.63337 11.5547 3.62109C11.5545 5.23389 10.4313 6.59905 8.88379 7.05664C8.82405 6.97431 8.75136 6.89965 8.66797 6.83496C8.4617 6.67543 8.20073 6.58926 7.93555 6.59277C7.60059 6.59709 7.28689 6.73949 7.07422 6.98535L7.00879 7.06055L6.93945 7.13965C5.22556 6.78891 3.94157 5.34603 3.94141 3.62109C3.94141 1.63345 5.64412 0.0196612 7.74707 0.0195312Z" fill="#3D3D3D" stroke="#3D3D3D" stroke-width="0.0383654"/>
    <path d="M8.44916 8.10089C8.68855 7.82397 8.66115 7.42386 8.39804 7.17675L8.3472 7.13297C8.20977 7.02663 8.04298 6.97579 7.87843 6.97779C7.67346 6.98032 7.47092 7.0648 7.32996 7.22524L7.32432 7.22977L7.00417 7.60038L3.46851 11.6905C3.34551 11.832 3.28765 12.0163 3.30756 12.1986C3.32856 12.3808 3.42569 12.5488 3.57849 12.6633L7.68902 15.7608L8.2034 16.1477C8.3395 16.2506 8.50361 16.2995 8.66459 16.2973C8.87524 16.2947 9.08289 16.2063 9.22413 16.0382C9.47423 15.7414 9.42205 15.3088 9.10823 15.072L7.53173 13.8843L5.05895 12.0219L7.17018 9.57927L8.44916 8.10089Z" fill="#3D3D3D"/>
</svg>