<svg width="375" height="146" viewBox="0 0 375 146" fill="none" xmlns="http://www.w3.org/2000/svg">
    <rect width="375" height="146" fill="#ED6E44"/>
    <g opacity="0.5">
        <path d="M269.611 117.153L265.244 134.107L235.544 126.967L239.911 110.014L240.777 110.221L250.129 121.33L251.511 122.971C251.891 123.422 252.521 123.567 253.072 123.334L255.018 122.539L268.732 116.941L269.611 117.151L269.611 117.153Z" stroke="#FCE6D8" stroke-width="0.755709" stroke-miterlimit="10"/>
        <path d="M268.69 116.974L254.953 122.584L253.004 123.38C252.452 123.614 251.82 123.468 251.44 123.017L250.056 121.372L240.688 110.242L268.691 116.975L268.69 116.974Z" stroke="#FCE6D8" stroke-width="0.755709" stroke-miterlimit="10"/>
        <path d="M255.064 122.563L264.926 131.023C264.926 131.023 265.571 131.619 265.337 134.2" stroke="#FCE6D8" stroke-width="0.755709" stroke-miterlimit="10"/>
        <path d="M235.582 126.855C235.582 126.855 236.504 124.466 237.195 124.15C237.696 123.923 245.75 122.175 250.123 121.233" stroke="#FCE6D8" stroke-width="0.755709" stroke-miterlimit="10"/>
        <path d="M121.366 141.336L83.8877 143.239L80.3412 128.563L78.8145 122.252L84.6603 121.955L123.689 119.974L121.366 141.336Z" stroke="#FCE6D8" stroke-width="1.12805" stroke-miterlimit="10"/>
        <path d="M84.6699 122.076L85.6164 122.025L97.896 121.365L104.814 120.993L116.919 120.342L118.793 120.241" stroke="#FCE6D8" stroke-width="1.12805" stroke-miterlimit="10"/>
        <path d="M119.143 119.409L122.367 110.453L78.6914 112.684L83.8444 120.759L83.8445 120.762" stroke="#FCE6D8" stroke-width="1.12805" stroke-miterlimit="10"/>
        <path d="M122.398 110.573C122.582 104.28 114.561 102.141 114.561 102.141L86.816 103.558C86.816 103.558 78.8909 104.692 78.7231 112.803" stroke="#FCE6D8" stroke-width="1.12805" stroke-miterlimit="10"/>
        <path d="M83.2735 122.152C83.2735 122.152 83.7935 119.247 86.7805 118.497C89.7675 117.748 92.8216 118.188 92.8216 118.188C92.8216 118.188 94.355 115.923 96.017 115.937C97.679 115.951 100.05 116.416 100.05 116.416C100.05 116.416 103.364 116.25 104.396 115.504C105.429 114.757 108.138 116.002 108.138 116.002C108.138 116.002 109.478 117.236 111.232 117.146C112.985 117.056 115.026 116.852 115.026 116.852C115.026 116.852 118.372 117.267 119.617 120.291" stroke="#FCE6D8" stroke-width="1.12805" stroke-miterlimit="10"/>
        <path d="M86.8206 103.573C86.8206 103.573 85.408 104.658 84.4033 106.443C83.9518 107.245 83.5817 108.19 83.4596 109.238L118.442 107.447C118.442 107.447 118.229 106.138 117.394 104.752C116.808 103.779 115.912 102.769 114.57 102.15" stroke="#FCE6D8" stroke-width="1.12805" stroke-miterlimit="10"/>
        <path d="M85.5933 122.025C85.5933 122.025 87.0172 127.886 80.3386 128.657" stroke="#FCE6D8" stroke-width="1.12805" stroke-miterlimit="10"/>
        <path d="M116.919 120.323C116.919 120.323 117.122 127.378 123.039 126.379" stroke="#FCE6D8" stroke-width="1.12805" stroke-miterlimit="10"/>
        <path d="M114.79 141.563C114.79 141.563 114.01 135.073 122.067 134.785" stroke="#FCE6D8" stroke-width="1.12805" stroke-miterlimit="10"/>
        <path d="M82.305 136.898C82.305 136.898 90.163 136.05 90.1216 142.91" stroke="#FCE6D8" stroke-width="1.12805" stroke-miterlimit="10"/>
        <path d="M97.8945 121.342L98.2564 127.688C98.2564 127.688 99.8029 129.693 101.819 129.591C103.836 129.489 105.148 127.388 105.148 127.388L104.784 120.993" stroke="#FCE6D8" stroke-width="1.12805" stroke-miterlimit="10"/>
        <path d="M105.008 124.58L117.832 123.89L117.834 123.89" stroke="#FCE6D8" stroke-width="1.12805" stroke-miterlimit="10"/>
        <path d="M98.0881 124.952L85.252 125.642" stroke="#FCE6D8" stroke-width="1.12805" stroke-miterlimit="10"/>
        <path d="M83.5156 127.613L85.3663 137.114" stroke="#FCE6D8" stroke-width="1.12805" stroke-miterlimit="10"/>
        <path d="M89.2402 139.497L115.503 138.085" stroke="#FCE6D8" stroke-width="1.12805" stroke-miterlimit="10"/>
        <path d="M119.457 125.788L118.947 135.33" stroke="#FCE6D8" stroke-width="1.12805" stroke-miterlimit="10"/>
        <path d="M83.7051 130.553L119.585 128.624" stroke="#FCE6D8" stroke-width="1.12805" stroke-miterlimit="10"/>
        <path d="M84.9453 134.959L119.05 133.126" stroke="#FCE6D8" stroke-width="1.12805" stroke-miterlimit="10"/>
        <path d="M84.3945 106.486L117.403 104.711" stroke="#FCE6D8" stroke-width="1.12805" stroke-miterlimit="10"/>
        <path d="M101.626 127.177C101.909 127.163 102.108 126.612 102.07 125.947C102.032 125.282 101.772 124.755 101.489 124.769C101.206 124.784 101.007 125.334 101.045 125.999C101.083 126.664 101.343 127.191 101.626 127.177Z" stroke="#FCE6D8" stroke-width="1.12805" stroke-miterlimit="10"/>
        <path d="M52.8115 54.1727C55.1633 47.9226 51.5733 40.7878 44.7931 38.2366C38.0129 35.6853 30.61 38.6839 28.2582 44.9339C25.9065 51.184 29.4964 58.3189 36.2767 60.8701C43.0569 63.4213 50.4598 60.4228 52.8115 54.1727Z" stroke="#FCE6D8" stroke-width="0.874883" stroke-miterlimit="10"/>
        <path d="M50.6339 53.3535C52.5686 48.2117 49.6153 42.342 44.0375 40.2433C38.4597 38.1445 32.3695 40.6113 30.4348 45.7531C28.5001 50.895 31.4534 56.7646 37.0312 58.8634C42.609 60.9622 48.6992 58.4954 50.6339 53.3535Z" stroke="#FCE6D8" stroke-width="0.874883" stroke-miterlimit="10"/>
        <path d="M34.3125 62.9133L35.2452 60.4348" stroke="#FCE6D8" stroke-width="0.874883" stroke-miterlimit="10"/>
        <path d="M36.4102 63.7047L37.3428 61.2244" stroke="#FCE6D8" stroke-width="0.874883" stroke-miterlimit="10"/>
        <path d="M36.408 63.6942L34.3196 62.9084C33.7472 62.693 33.1086 62.9824 32.8932 63.5548L29.044 73.7848C28.8286 74.3572 29.118 74.9958 29.6904 75.2111L31.7788 75.997C32.3512 76.2123 32.9898 75.9229 33.2052 75.3505L37.0544 65.1206C37.2698 64.5482 36.9804 63.9096 36.408 63.6942Z" stroke="#FCE6D8" stroke-width="0.874883" stroke-miterlimit="10"/>
        <path d="M49.0203 49.7237C48.9089 46.5151 46.7332 43.4495 43.3184 42.1638" stroke="#FCE6D8" stroke-width="0.874883" stroke-miterlimit="10" stroke-linecap="round"/>
        <path d="M284.739 41.7085C282.824 41.4371 281.492 39.6637 281.764 37.7476C282.035 35.833 283.808 34.5007 285.725 34.7722C287.641 35.0437 288.971 36.817 288.7 38.7331C288.428 40.6477 286.655 41.98 284.739 41.7085Z" stroke="#FCE6D8" stroke-width="0.870331" stroke-miterlimit="10"/>
        <path d="M284.739 41.7085C282.824 41.4371 281.492 39.6637 281.764 37.7476C282.035 35.833 283.808 34.5007 285.725 34.7722C287.641 35.0437 288.971 36.817 288.7 38.7331C288.428 40.6477 286.655 41.98 284.739 41.7085Z" stroke="#FCE6D8" stroke-width="0.870331" stroke-miterlimit="10"/>
        <path d="M291.538 39.1373C291.538 39.1375 291.537 39.1373 291.538 39.1369C292.031 35.6613 289.613 32.4417 286.137 31.9475C284.507 31.7159 282.933 32.1247 281.671 32.9831C281.288 33.2435 280.78 33.2776 280.402 33.0099L268.202 24.3683C267.751 24.049 267.127 24.1556 266.808 24.6064L266.418 25.1565C266.099 25.6074 266.206 26.2318 266.657 26.5508L266.703 26.5835L272.097 30.4048L278.777 35.1357C279.169 35.4129 279.3 35.9272 279.16 36.3861C279.066 36.6962 278.994 37.0173 278.947 37.3475C278.452 40.8235 280.871 44.0437 284.348 44.5381C287.824 45.0323 291.044 42.613 291.539 39.1376C291.539 39.1372 291.538 39.137 291.538 39.1373ZM281.762 37.7492C282.034 35.8346 283.807 34.5023 285.723 34.7738C287.639 35.0453 288.97 36.8186 288.698 38.7347C288.427 40.6493 286.654 41.9816 284.738 41.7102C282.823 41.4387 281.491 39.6653 281.762 37.7492Z" stroke="#FCE6D8" stroke-width="0.870331" stroke-miterlimit="10"/>
        <path d="M268.864 31.2287L266.75 29.7315L265.943 30.8709L264.426 29.7959L266.701 26.5835L272.095 30.4048L269.821 33.6172L268.057 32.368L268.864 31.2287Z" stroke="#FCE6D8" stroke-width="0.870331" stroke-miterlimit="10"/>
        <path d="M109.454 24.4481L124.667 20.1405L126.816 19.532L127.869 19.2341C129.232 18.8485 130.65 19.6398 131.036 21.0031L134.854 34.485C135.239 35.8483 134.448 37.2665 133.085 37.6521L113.362 43.2371C111.998 43.6227 110.58 42.8314 110.195 41.4681L106.377 27.9862C105.991 26.6229 106.783 25.2047 108.146 24.8191L109.453 24.4481" stroke="#FCE6D8" stroke-width="0.87" stroke-miterlimit="10"/>
        <path d="M121.581 30.8849L124.239 34.3956L119.405 35.7644L119.825 31.382C118.826 31.2869 117.939 30.5906 117.65 29.5654C117.272 28.2313 118.049 26.8423 119.383 26.464C120.717 26.0857 122.106 26.8624 122.484 28.1965C122.775 29.2218 122.386 30.2781 121.583 30.8849H121.581Z" stroke="#FCE6D8" stroke-width="0.87" stroke-miterlimit="10"/>
        <path d="M110.828 24.0607L109.295 18.6438C108.154 14.6177 110.493 10.429 114.52 9.28861C118.546 8.14822 122.733 10.4893 123.873 14.5136L125.406 19.9304" stroke="#FCE6D8" stroke-width="0.87" stroke-miterlimit="10"/>
        <path d="M112.418 23.6093L111.099 18.949C110.077 15.3396 111.751 11.7046 114.84 10.8311C117.926 9.95748 121.26 12.1743 122.281 15.7819L123.601 20.4421" stroke="#FCE6D8" stroke-width="0.87" stroke-miterlimit="10"/>
        <path d="M355.749 32.3415L331.059 23.2761L315.682 63.3819L340.373 72.4472L355.749 32.3415Z" stroke="#FCE6D8" stroke-width="1.39262" stroke-miterlimit="10"/>
        <path d="M313.653 62.6706L329.883 20.3545L358.536 30.8709L342.307 73.187" stroke="#FCE6D8" stroke-width="0.696312" stroke-miterlimit="10" stroke-linecap="round"/>
        <path d="M328.156 43.8633C328.751 44.082 329.048 44.7579 328.811 45.3767C328.573 45.9955 327.895 46.3139 327.299 46.0956C326.703 45.877 326.406 45.2008 326.644 44.5819C326.881 43.963 327.56 43.6448 328.156 43.8633Z" fill="#FCE6D8" stroke="#FCE6D8" stroke-width="0.174078"/>
    </g>
</svg>
