<svg xmlns="http://www.w3.org/2000/svg" width="120" height="21" viewBox="0 0 120 21" fill="none">
    <path d="M78.2775 5.9707C78.3563 5.9707 78.4264 6.00137 78.4833 6.05832C78.5403 6.11527 78.571 6.18536 78.571 6.26421V13.1025C78.571 14.2371 78.514 15.249 78.3957 16.1427C78.2775 17.0364 78.0102 17.7942 77.5941 18.4207C77.1779 19.0471 76.569 19.5246 75.7761 19.8576C74.9832 20.1905 73.9012 20.357 72.53 20.357C71.6188 20.357 70.7953 20.2825 70.0681 20.1335C69.3365 19.9846 68.7145 19.7174 68.2019 19.3319C67.6894 18.9464 67.2907 18.4251 67.0104 17.7592C66.73 17.0933 66.5898 16.2478 66.5898 15.2184C66.5898 15.1395 66.6205 15.0694 66.6775 15.0125C66.7344 14.9555 66.8045 14.9249 66.8833 14.9249H70.401C70.4799 14.9249 70.55 14.9555 70.6069 15.0125C70.6639 15.0694 70.6945 15.1395 70.6945 15.2184C70.6945 15.7791 70.8391 16.1602 71.1238 16.3617C71.4086 16.5633 71.8423 16.664 72.4117 16.664C72.8673 16.664 73.2222 16.6246 73.4762 16.5457C73.7303 16.4669 73.9187 16.3355 74.0414 16.1559C74.164 15.9719 74.2385 15.7397 74.2648 15.4506C74.291 15.1658 74.3042 14.8197 74.3042 14.4167L74.2648 13.5362V6.26421C74.2648 6.18536 74.2954 6.11965 74.3524 6.05832C74.4093 5.99699 74.4794 5.9707 74.5583 5.9707H78.2687H78.2775ZM74.567 6.26421V13.1025C74.567 13.6895 74.5802 14.2152 74.6065 14.6839C74.6327 15.1527 74.5977 15.5557 74.4969 15.8974C74.4006 16.2347 74.1947 16.4976 73.8836 16.6772C73.5726 16.8611 73.082 16.9531 72.4161 16.9531C72.1664 16.9531 71.9211 16.9356 71.6714 16.8962C71.4261 16.8568 71.2071 16.7779 71.0275 16.6509C70.8435 16.5282 70.6945 16.353 70.5762 16.1252C70.458 15.8974 70.401 15.5951 70.401 15.2184H66.8833C66.8833 16.1427 66.9972 16.9137 67.225 17.5358C67.4528 18.1535 67.8033 18.6529 68.272 19.0296C68.7407 19.4063 69.3278 19.6736 70.0287 19.8313C70.7339 19.989 71.5663 20.0678 72.53 20.0678C73.4938 20.0678 74.2604 19.9846 74.9043 19.8225C75.5483 19.6604 76.0827 19.4282 76.5077 19.1304C76.9326 18.8325 77.2611 18.4689 77.5021 18.0439C77.743 17.619 77.9182 17.1503 78.0278 16.6377C78.1373 16.1252 78.2074 15.5645 78.2337 14.9687C78.2599 14.3685 78.2731 13.7508 78.2731 13.1113V6.27297H74.5627L74.567 6.26421Z" fill="#1A1A1A"/>
    <path d="M84.399 11.2451H89.7522C89.831 11.2451 89.9011 11.2757 89.9581 11.3327C90.015 11.3896 90.0457 11.4597 90.0457 11.5386V14.6664C90.0457 14.7453 90.015 14.8154 89.9581 14.8723C89.9011 14.9293 89.831 14.9599 89.7522 14.9599H84.399V16.2478C84.399 16.3924 84.4078 16.4756 84.4297 16.5019C84.4472 16.5282 84.5304 16.5414 84.675 16.5414H90.7334C90.8123 16.5414 90.878 16.572 90.9393 16.629C90.9963 16.6859 91.0269 16.756 91.0269 16.8349V19.9408C91.0269 20.0196 90.9963 20.0854 90.9393 20.1467C90.8824 20.2036 90.8123 20.2343 90.7334 20.2343H82.6423C81.7049 20.2343 81.0478 20.0065 80.6667 19.5509C80.2855 19.0953 80.1016 18.4294 80.1016 17.5577V8.66484C80.1016 7.79308 80.2899 7.12283 80.6667 6.66286C81.0434 6.1985 81.7005 5.9707 82.6423 5.9707H90.7334C90.8123 5.9707 90.878 6.00137 90.9393 6.05832C90.9963 6.11527 91.0269 6.18536 91.0269 6.26421V9.37013C91.0269 9.44899 90.9963 9.51908 90.9393 9.57603C90.8824 9.63297 90.8123 9.66364 90.7334 9.66364H84.675C84.5304 9.66364 84.4516 9.67678 84.4297 9.70307C84.4121 9.72935 84.399 9.81258 84.399 9.95715V11.2451ZM84.6706 9.37013H90.7291V6.26421H82.638C81.7925 6.26421 81.2055 6.46134 80.8813 6.85999C80.5572 7.25863 80.3907 7.85879 80.3907 8.66922V17.5621C80.3907 18.3594 80.5528 18.9507 80.8813 19.3494C81.2055 19.748 81.7925 19.9452 82.638 19.9452H90.7291V16.8392H84.6706C84.4384 16.8392 84.2851 16.7954 84.2106 16.7122C84.1405 16.629 84.1011 16.4756 84.1011 16.2522V14.6708H89.7478V11.543H84.1011V9.96153C84.1011 9.74249 84.1361 9.58917 84.2106 9.50155C84.2807 9.41832 84.434 9.37451 84.6706 9.37451V9.37013Z" fill="#1A1A1A"/>
    <path d="M105.308 14.0794C105.308 15.214 105.164 16.1821 104.879 16.9794C104.594 17.7811 104.169 18.4294 103.609 18.9245C103.048 19.4195 102.351 19.7831 101.519 20.0109C100.687 20.2387 99.7273 20.3526 98.6452 20.3526C96.5075 20.3526 94.9042 19.8488 93.8397 18.8368C92.7708 17.8293 92.2363 16.2391 92.2363 14.0794V6.26421C92.2363 6.18536 92.267 6.11965 92.3239 6.05832C92.3809 5.99699 92.451 5.9707 92.5298 5.9707H96.2446C96.3235 5.9707 96.3892 6.00137 96.4505 6.05832C96.5075 6.11527 96.5381 6.18536 96.5381 6.26421V14.0794C96.5381 14.4561 96.5688 14.8066 96.6345 15.1264C96.7002 15.4462 96.8054 15.7178 96.9455 15.9456C97.0901 16.1734 97.2872 16.3486 97.5413 16.4713C97.7954 16.5939 98.1064 16.6553 98.47 16.6553H99.0964C99.4732 16.6553 99.7842 16.5939 100.025 16.4713C100.266 16.3486 100.463 16.1734 100.612 15.9456C100.761 15.7178 100.866 15.4462 100.923 15.1264C100.98 14.8066 101.011 14.4605 101.011 14.0794V6.26421C101.011 6.18536 101.041 6.11965 101.098 6.05832C101.155 5.99699 101.225 5.9707 101.304 5.9707H105.019C105.098 5.9707 105.164 6.00137 105.225 6.05832C105.282 6.11527 105.313 6.18536 105.313 6.26421V14.0794H105.308ZM105.015 6.26421H101.3V14.0794C101.3 14.6401 101.243 15.1045 101.133 15.4681C101.024 15.8317 100.866 16.1252 100.665 16.3486C100.463 16.572 100.227 16.7253 99.9594 16.8173C99.6922 16.9093 99.4031 16.9531 99.0877 16.9531H98.4612C98.1502 16.9531 97.8567 16.9093 97.5807 16.8173C97.3091 16.7253 97.0726 16.572 96.8755 16.3486C96.6783 16.1252 96.525 15.8361 96.4067 15.4681C96.2884 15.1001 96.2315 14.6401 96.2315 14.0794V6.26421H92.5167V14.0794C92.5167 15.0432 92.6306 15.8974 92.8584 16.6377C93.0862 17.3781 93.4498 18.0045 93.9448 18.5127C94.4398 19.0208 95.0706 19.4063 95.8416 19.6648C96.6082 19.9276 97.5413 20.0547 98.6365 20.0547H98.9081C100.003 20.0547 100.932 19.9233 101.703 19.6648C102.47 19.4063 103.1 19.0208 103.587 18.5127C104.077 18.0045 104.432 17.3781 104.66 16.6377C104.888 15.893 105.002 15.0432 105.002 14.0794V6.26421H105.015Z" fill="#1A1A1A"/>
    <path d="M116.113 13.1025L119.942 19.805C120.008 19.9233 120.017 20.024 119.973 20.1073C119.929 20.1905 119.833 20.2343 119.688 20.2343H115.623C115.596 20.2343 115.553 20.2168 115.487 20.1773C115.421 20.1379 115.382 20.1073 115.369 20.081L112.946 15.5645L110.524 20.081C110.51 20.1073 110.471 20.1379 110.405 20.1773C110.34 20.2168 110.296 20.2343 110.27 20.2343H106.187C106.042 20.2343 105.95 20.1905 105.902 20.1073C105.854 20.024 105.867 19.9233 105.933 19.805L109.761 13.1025L105.933 6.40001C105.867 6.28173 105.858 6.18098 105.902 6.09774C105.946 6.01451 106.042 5.9707 106.187 5.9707H110.27C110.296 5.9707 110.34 5.98822 110.405 6.02765C110.471 6.06708 110.51 6.09774 110.524 6.12403L112.946 10.6362L115.369 6.12403C115.382 6.09774 115.421 6.06708 115.487 6.02765C115.553 5.98822 115.596 5.9707 115.623 5.9707H119.688C119.833 5.9707 119.925 6.01451 119.973 6.09774C120.017 6.18098 120.008 6.28173 119.942 6.40001L116.113 13.1025ZM119.688 6.26421H115.623L112.946 11.267L110.27 6.26421H106.187L110.094 13.1025L106.187 19.9408H110.27L112.946 14.938L115.623 19.9408H119.688L115.78 13.1025L119.688 6.26421Z" fill="#1A1A1A"/>
    <path d="M19.9674 9.42671C19.7352 9.42671 19.5819 9.47052 19.5074 9.55375C19.4373 9.63698 19.3979 9.79031 19.3979 10.0137V11.5952H25.0446V14.723H19.3979V16.3044C19.3979 16.5278 19.433 16.6768 19.5074 16.7644C19.5775 16.8476 19.7309 16.8914 19.9674 16.8914H26.0259V19.9974H17.9348C17.0893 19.9974 16.5023 19.8002 16.1781 19.4016C15.854 19.0029 15.6875 18.4072 15.6875 17.6143V8.72142C15.6875 7.91536 15.8496 7.31083 16.1781 6.91218C16.5023 6.51354 17.0893 6.31641 17.9348 6.31641H26.0259V9.42233H19.9674V9.42671Z" fill="#ED6E44"/>
    <path d="M37.34 16.8919V19.9979H30.2258C29.3803 19.9979 28.7933 19.8007 28.4691 19.4021C28.145 19.0034 27.9785 18.4077 27.9785 17.6148V6.32129H31.6933V16.3093C31.6933 16.5327 31.7284 16.6817 31.7985 16.7693C31.8685 16.8525 32.0219 16.8963 32.2584 16.8963H37.34V16.8919Z" fill="#ED6E44"/>
    <path d="M50.6677 6.32129V20.0022H46.9923V17.7374H42.4802L41.5603 20.0022H37.6133L41.7355 10.0361C42.0465 9.28265 42.3532 8.66059 42.6423 8.17871C42.9358 7.69683 43.2687 7.32009 43.6498 7.0441C44.0266 6.7725 44.4822 6.57975 45.0078 6.47899C45.5335 6.37385 46.195 6.32129 46.9923 6.32129H50.6677ZM46.9923 9.44912C46.563 9.51483 46.1731 9.75576 45.8314 10.1719C45.4897 10.5881 45.1393 11.2277 44.7844 12.0863L43.7506 14.6271H46.9923V9.44912Z" fill="#ED6E44"/>
    <path d="M65.4815 6.32129V20.0022H62.8619C62.4326 20.0022 62.0558 19.9716 61.736 19.9146C61.4163 19.8577 61.1315 19.7569 60.8774 19.6124C60.6234 19.4678 60.3956 19.2663 60.1941 19.0078C59.9925 18.7494 59.7954 18.4208 59.5983 18.0309L56.7246 12.3053V20.0066H53.0098V6.32567H55.5681C56.0499 6.32567 56.4617 6.36071 56.799 6.43519C57.1363 6.50528 57.4255 6.62356 57.6708 6.78564C57.9117 6.94773 58.122 7.158 58.306 7.42084C58.49 7.68369 58.6696 7.99472 58.8536 8.35832L61.7667 14.1803V6.32567H65.4815V6.32129Z" fill="#ED6E44"/>
    <path d="M2.89124 5.72121C4.47109 5.72121 5.75182 4.44047 5.75182 2.8606C5.75182 1.28074 4.47109 0 2.89124 0C1.31139 0 0.0306695 1.28074 0.0306695 2.8606C0.0306695 4.44047 1.31139 5.72121 2.89124 5.72121Z" fill="#ED6E44"/>
    <path d="M10.8903 5.72121C12.4702 5.72121 13.7509 4.44047 13.7509 2.8606C13.7509 1.28074 12.4702 0 10.8903 0C9.31048 0 8.02976 1.28074 8.02976 2.8606C8.02976 4.44047 9.31048 5.72121 10.8903 5.72121Z" fill="#ED6E44"/>
    <path d="M11.508 6.32136C10.9342 6.32136 10.4567 6.37831 10.0712 6.48783C9.68566 6.59735 9.36588 6.76819 9.1118 6.99599C8.85772 7.22379 8.65183 7.50416 8.49412 7.83709C8.33642 8.17002 8.18748 8.55552 8.04291 8.99798L7.21935 11.6264C7.2982 12.1433 7.35953 12.8267 7.39896 13.6065C8.13053 13.8343 8.66059 14.5177 8.66059 15.3237C8.66059 16.1298 8.14367 16.7956 7.42524 17.0322C7.4121 17.4484 7.3902 17.8382 7.36829 18.2018C7.55228 18.1843 7.71437 18.1624 7.85017 18.1186C8.0692 18.0529 8.25319 17.9346 8.39775 17.7594C8.54231 17.5842 8.66935 17.3476 8.78763 17.0541C8.90591 16.7606 9.02856 16.3882 9.15998 15.9326L10.0186 13.0195V19.9979H13.7334V6.31698H11.5036L11.508 6.32136Z" fill="#ED6E44"/>
    <path d="M6.30378 17.0366C5.58535 16.8001 5.06843 16.1254 5.06843 15.3281C5.06843 14.5309 5.59849 13.8387 6.33006 13.6109C6.36949 12.8487 6.42643 12.1828 6.5009 11.6702L5.6642 8.99801C5.53278 8.55556 5.38822 8.16568 5.22613 7.83713C5.06405 7.5042 4.85378 7.22383 4.5997 6.99603C4.34562 6.76823 4.03021 6.59739 3.65347 6.48787C3.27674 6.37835 2.79486 6.3214 2.20785 6.3214H0V20.0024H3.7148V13.0239L4.57341 15.9371C4.71797 16.3927 4.84063 16.7694 4.94577 17.0585C5.0509 17.352 5.17794 17.5842 5.32689 17.7638C5.47583 17.939 5.6642 18.0617 5.88323 18.123C6.01903 18.1625 6.18112 18.1887 6.36511 18.2063C6.33882 17.8427 6.3213 17.4484 6.30815 17.0366H6.30378Z" fill="#ED6E44"/>
</svg>