<svg xmlns="http://www.w3.org/2000/svg" width="24" height="24" viewBox="0 0 24 24" fill="none">
    <path d="M12 2.75C17.1089 2.75 21.25 6.89114 21.25 12C21.25 17.1089 17.1089 21.25 12 21.25C6.89114 21.25 2.75 17.1089 2.75 12C2.75 6.89114 6.89114 2.75 12 2.75ZM14.666 6.57715C13.3246 6.1029 11.8547 6.14314 10.541 6.68945C9.32635 7.19466 8.32507 8.10015 7.69922 9.25H7.5C7.16848 9.25 6.85063 9.38179 6.61621 9.61621C6.38179 9.85063 6.25 10.1685 6.25 10.5C6.25 10.8315 6.38179 11.1494 6.61621 11.3838C6.73081 11.4984 6.86537 11.5883 7.01172 11.6504C6.99763 11.883 6.99767 12.1161 7.01172 12.3486C6.86524 12.4108 6.7309 12.5015 6.61621 12.6162C6.38179 12.8506 6.25 13.1685 6.25 13.5C6.25 13.8315 6.38179 14.1494 6.61621 14.3838C6.85063 14.6182 7.16848 14.75 7.5 14.75H7.69922C8.32507 15.8998 9.32635 16.8053 10.541 17.3105C11.8546 17.8568 13.3238 17.896 14.665 17.4219C14.8198 17.3674 14.9628 17.2834 15.085 17.1738C15.2069 17.0644 15.3061 16.9319 15.377 16.7842C15.4479 16.6362 15.4891 16.4754 15.498 16.3115C15.507 16.1476 15.4832 15.983 15.4287 15.8281C15.3742 15.6736 15.2901 15.5312 15.1807 15.4092C15.0711 15.287 14.9381 15.1872 14.79 15.1162C14.6421 15.0453 14.4812 15.004 14.3174 14.9951C14.1536 14.9863 13.9897 15.01 13.835 15.0645H13.834C13.1812 15.2955 12.4714 15.3118 11.8086 15.1113C11.5292 15.0268 11.2656 14.9035 11.0215 14.75H12.75C13.0815 14.75 13.3994 14.6182 13.6338 14.3838C13.8682 14.1494 14 13.8315 14 13.5C14 13.1685 13.8682 12.8506 13.6338 12.6162C13.3994 12.3818 13.0815 12.25 12.75 12.25H9.50977C9.497 12.0836 9.497 11.9164 9.50977 11.75H12.75C13.0815 11.75 13.3994 11.6182 13.6338 11.3838C13.8682 11.1494 14 10.8315 14 10.5C14 10.1685 13.8682 9.85063 13.6338 9.61621C13.3994 9.38179 13.0815 9.25 12.75 9.25H11.0186C11.3289 9.05454 11.6711 8.91089 12.0322 8.8291C12.6308 8.69357 13.2554 8.73086 13.834 8.93555H13.835C13.9897 8.98999 14.1536 9.01372 14.3174 9.00488C14.4812 8.99598 14.6421 8.95467 14.79 8.88379C14.9381 8.81283 15.0711 8.71302 15.1807 8.59082C15.2901 8.46879 15.3742 8.32644 15.4287 8.17188C15.4832 8.01702 15.507 7.85239 15.498 7.68848C15.4891 7.52463 15.4479 7.36379 15.377 7.21582C15.3061 7.06807 15.2069 6.93563 15.085 6.82617C14.9628 6.71656 14.8199 6.63165 14.665 6.57715H14.666Z" fill="#3D3D3D" stroke="#3D3D3D"/>
</svg>