<svg xmlns="http://www.w3.org/2000/svg" width="32" height="32" viewBox="0 0 32 32" fill="none">
    <path d="M4.6364 3.20523C4.46311 3.15489 4.27943 3.15237 4.10483 3.19795C3.93024 3.24353 3.77122 3.33551 3.64466 3.46412C3.51809 3.59274 3.42868 3.75321 3.38591 3.92852C3.34315 4.10383 3.34861 4.28744 3.40173 4.4599L6.6444 14.9999H17.9991C18.2643 14.9999 18.5186 15.1053 18.7062 15.2928C18.8937 15.4803 18.9991 15.7347 18.9991 15.9999C18.9991 16.2651 18.8937 16.5195 18.7062 16.707C18.5186 16.8945 18.2643 16.9999 17.9991 16.9999H6.6444L3.40173 27.5399C3.34893 27.7123 3.3437 27.8957 3.38661 28.0708C3.42952 28.2459 3.51896 28.4062 3.64548 28.5346C3.772 28.663 3.93088 28.7549 4.10532 28.8004C4.27975 28.8459 4.46325 28.8434 4.6364 28.7932C13.4564 26.2283 21.7736 22.1763 29.2297 16.8119C29.3586 16.7193 29.4635 16.5973 29.5359 16.4562C29.6083 16.315 29.6461 16.1586 29.6461 15.9999C29.6461 15.8412 29.6083 15.6848 29.5359 15.5436C29.4635 15.4024 29.3586 15.2805 29.2297 15.1879C21.7738 9.82296 13.4565 5.7705 4.6364 3.20523Z" fill="#F6F6F6"/>
</svg>