<svg xmlns="http://www.w3.org/2000/svg" width="20" height="21" viewBox="0 0 20 21" fill="none">
    <path d="M16.0283 0.544922C16.5989 0.435239 17.1904 0.527841 17.7002 0.806641C18.2099 1.08549 18.6068 1.53366 18.8223 2.07324C19.0376 2.61276 19.0583 3.21052 18.8809 3.76367C18.7033 4.31703 18.338 4.79096 17.8486 5.10449C17.3593 5.41801 16.7761 5.55136 16.1992 5.48145C15.6224 5.41147 15.0877 5.14294 14.6875 4.72168L14.4209 4.44141L14.082 4.62891L5.66113 9.30859L5.32324 9.49609L5.41992 9.87109C5.52715 10.2837 5.52715 10.7172 5.41992 11.1299L5.32324 11.5039L5.66113 11.6924L14.082 16.3711L14.4209 16.5596L14.6875 16.2793C15.1069 15.8384 15.6731 15.5653 16.2793 15.5117C16.8853 15.4582 17.4904 15.6269 17.9805 15.9873C18.4707 16.3478 18.8119 16.8752 18.9414 17.4697C19.0709 18.0643 18.9795 18.686 18.6836 19.2178C18.3877 19.7494 17.9074 20.1551 17.334 20.3584C16.7607 20.5615 16.1329 20.5487 15.5684 20.3223C15.0036 20.0957 14.5406 19.6703 14.2666 19.127C13.9928 18.5837 13.9265 17.9588 14.0801 17.3701L14.1777 16.9951L13.8389 16.8076L5.41797 12.1289L5.0791 11.9414L4.8125 12.2217C4.46825 12.5841 4.02345 12.8354 3.53516 12.9424C3.04686 13.0494 2.5375 13.0076 2.07324 12.8223C1.60895 12.6369 1.21108 12.3162 0.930664 11.9023C0.650244 11.4885 0.5 10.9999 0.5 10.5C0.50005 10.0002 0.650291 9.51147 0.930664 9.09766C1.21107 8.68396 1.60908 8.36401 2.07324 8.17871C2.53754 7.99336 3.04681 7.95161 3.53516 8.05859C4.02331 8.16559 4.4683 8.41602 4.8125 8.77832L5.0791 9.05957L5.41797 8.87109L13.8389 4.19238L14.1777 4.00391L14.0801 3.62988C14.0268 3.42453 13.9999 3.21312 14 3.00098V3C14 2.41907 14.2024 1.85617 14.5723 1.4082C14.9423 0.960127 15.4576 0.654678 16.0283 0.544922Z" fill="#3D3D3D" stroke="#3D3D3D"/>
</svg>