<svg xmlns="http://www.w3.org/2000/svg" width="24" height="24" viewBox="0 0 24 24" fill="none">
    <path d="M3.375 5H15.7529C15.7052 5.03566 15.6588 5.07358 15.6162 5.11621C15.3818 5.35063 15.25 5.66848 15.25 6V6.75C15.25 7.08152 15.3818 7.39937 15.6162 7.63379C15.8506 7.86821 16.1685 8 16.5 8C16.8315 8 17.1494 7.86821 17.3838 7.63379C17.6182 7.39937 17.75 7.08152 17.75 6.75V6C17.75 5.66848 17.6182 5.35063 17.3838 5.11621C17.3412 5.07358 17.2948 5.03566 17.2471 5H20.625C21.3839 5 22 5.61614 22 6.375V9.40137C22 9.44521 21.9887 9.48838 21.9668 9.52637C21.9558 9.54537 21.9421 9.56274 21.9268 9.57812L21.875 9.61816C21.4566 9.85921 21.1089 10.206 20.8672 10.624C20.6254 11.0423 20.498 11.5169 20.498 12C20.498 12.4831 20.6254 12.9577 20.8672 13.376C21.1088 13.7939 21.4568 14.1398 21.875 14.3809V14.3818C21.913 14.4038 21.9449 14.4356 21.9668 14.4736C21.9887 14.5116 22 14.5548 22 14.5986V17.625C22 18.3839 21.3839 19 20.625 19H17.2471C17.2948 18.9643 17.3412 18.9264 17.3838 18.8838C17.6182 18.6494 17.75 18.3315 17.75 18V17.25C17.75 16.9185 17.6182 16.6006 17.3838 16.3662C17.1494 16.1318 16.8315 16 16.5 16C16.1685 16 15.8506 16.1318 15.6162 16.3662C15.3818 16.6006 15.25 16.9185 15.25 17.25V18C15.25 18.3315 15.3818 18.6494 15.6162 18.8838C15.6588 18.9264 15.7052 18.9643 15.7529 19H3.375C3.01033 19 2.66021 18.8555 2.40234 18.5977C2.14448 18.3398 2 17.9897 2 17.625V14.5986L2.00879 14.5332C2.01436 14.5125 2.02243 14.4924 2.0332 14.4736C2.05506 14.4357 2.08612 14.4029 2.12402 14.3809C2.54222 14.1398 2.89024 13.7939 3.13184 13.376C3.37363 12.9577 3.50098 12.4831 3.50098 12C3.50098 11.5169 3.37363 11.0423 3.13184 10.624C2.89016 10.206 2.54241 9.85921 2.12402 9.61816H2.125C2.08703 9.59617 2.05509 9.5644 2.0332 9.52637C2.01144 9.48841 1.99994 9.44512 2 9.40137V6.375C2 5.61532 2.61597 5 3.375 5ZM6.75 13.75C6.41848 13.75 6.10063 13.8818 5.86621 14.1162C5.63179 14.3506 5.5 14.6685 5.5 15C5.5 15.3315 5.63179 15.6494 5.86621 15.8838C6.10063 16.1182 6.41848 16.25 6.75 16.25H9.75C10.0815 16.25 10.3994 16.1182 10.6338 15.8838C10.8682 15.6494 11 15.3315 11 15C11 14.6685 10.8682 14.3506 10.6338 14.1162C10.3994 13.8818 10.0815 13.75 9.75 13.75H6.75ZM16.5 12.25C16.1685 12.25 15.8506 12.3818 15.6162 12.6162C15.3818 12.8506 15.25 13.1685 15.25 13.5V14.25C15.25 14.5815 15.3818 14.8994 15.6162 15.1338C15.8506 15.3682 16.1685 15.5 16.5 15.5C16.8315 15.5 17.1494 15.3682 17.3838 15.1338C17.6182 14.8994 17.75 14.5815 17.75 14.25V13.5C17.75 13.1685 17.6182 12.8506 17.3838 12.6162C17.1494 12.3818 16.8315 12.25 16.5 12.25ZM6.75 10.75C6.41848 10.75 6.10063 10.8818 5.86621 11.1162C5.63179 11.3506 5.5 11.6685 5.5 12C5.5 12.3315 5.63179 12.6494 5.86621 12.8838C6.10063 13.1182 6.41848 13.25 6.75 13.25H12C12.3315 13.25 12.6494 13.1182 12.8838 12.8838C13.1182 12.6494 13.25 12.3315 13.25 12C13.25 11.6685 13.1182 11.3506 12.8838 11.1162C12.6494 10.8818 12.3315 10.75 12 10.75H6.75ZM16.5 8.5C16.1685 8.5 15.8506 8.63179 15.6162 8.86621C15.3818 9.10063 15.25 9.41848 15.25 9.75V10.5C15.25 10.8315 15.3818 11.1494 15.6162 11.3838C15.8506 11.6182 16.1685 11.75 16.5 11.75C16.8315 11.75 17.1494 11.6182 17.3838 11.3838C17.6182 11.1494 17.75 10.8315 17.75 10.5V9.75C17.75 9.41848 17.6182 9.10063 17.3838 8.86621C17.1494 8.63179 16.8315 8.5 16.5 8.5Z" fill="#3D3D3D" stroke="#3D3D3D"/>
</svg>