<svg xmlns="http://www.w3.org/2000/svg" width="20" height="20" viewBox="0 0 20 20" fill="none">
    <path d="M9.75 0.5C14.8589 0.5 19 4.64114 19 9.75C19 14.8589 14.8589 19 9.75 19C4.64114 19 0.5 14.8589 0.5 9.75C0.5 4.64114 4.64114 0.5 9.75 0.5ZM9.75 2.5C9.41848 2.5 9.10063 2.63179 8.86621 2.86621C8.63179 3.10063 8.5 3.41848 8.5 3.75V9.75C8.5 10.4401 9.05986 11 9.75 11H14.25C14.5815 11 14.8994 10.8682 15.1338 10.6338C15.3682 10.3994 15.5 10.0815 15.5 9.75C15.5 9.41848 15.3682 9.10063 15.1338 8.86621C14.8994 8.63179 14.5815 8.5 14.25 8.5H11V3.75C11 3.41848 10.8682 3.10063 10.6338 2.86621C10.3994 2.63179 10.0815 2.5 9.75 2.5Z" fill="#3D3D3D" stroke="#3D3D3D"/>
</svg>