<svg xmlns="http://www.w3.org/2000/svg" width="24" height="24" viewBox="0 0 24 24" fill="none">
    <path d="M8.625 12.5C10.3821 12.5 12.0671 13.198 13.3096 14.4404C14.552 15.6829 15.25 17.3679 15.25 19.125L15.249 19.2383C15.2483 19.2807 15.237 19.3226 15.2158 19.3594C15.1947 19.3961 15.1642 19.4264 15.1279 19.4482C13.1653 20.6301 10.917 21.2535 8.62598 21.25H8.625C6.24639 21.25 4.02132 20.5916 2.12305 19.4482H2.12207C2.08582 19.4265 2.05537 19.396 2.03418 19.3594C2.02356 19.341 2.01539 19.3211 2.00977 19.3008L2.00098 19.2383L2 19.125C2 17.3679 2.698 15.6829 3.94043 14.4404C5.18286 13.198 6.86794 12.5 8.625 12.5ZM17.9385 14.0098C18.6898 14.0637 19.4141 14.3114 20.042 14.7275C20.6699 15.1437 21.1801 15.7147 21.5225 16.3857C21.8648 17.0568 22.0277 17.805 21.9961 18.5576V18.5586C21.9942 18.6035 21.9806 18.647 21.9561 18.6846C21.9314 18.7223 21.8969 18.7527 21.8564 18.7725V18.7734C20.5595 19.409 19.1379 19.7407 17.6992 19.75C17.7287 19.5955 17.7464 19.4385 17.749 19.2803V19.2754L17.75 19.1318L17.751 19.0488L17.7471 19.0371C17.7333 17.3179 17.2324 15.6426 16.3076 14.2021C16.8324 14.0364 17.386 13.9702 17.9385 14.0098ZM17.625 5.75C18.0025 5.75 18.3768 5.82427 18.7256 5.96875C19.0743 6.11323 19.3913 6.3249 19.6582 6.5918C19.9251 6.85869 20.1368 7.17571 20.2812 7.52441C20.4257 7.87323 20.5 8.24745 20.5 8.625C20.5 9.3875 20.1974 10.119 19.6582 10.6582C19.119 11.1974 18.3875 11.5 17.625 11.5C16.8625 11.5 16.131 11.1974 15.5918 10.6582C15.0526 10.119 14.75 9.3875 14.75 8.625C14.75 8.24745 14.8243 7.87322 14.9688 7.52441C15.1132 7.17571 15.3249 6.85869 15.5918 6.5918C15.8587 6.3249 16.1757 6.11323 16.5244 5.96875C16.8732 5.82427 17.2474 5.75 17.625 5.75ZM8.625 2.75C9.58641 2.75 10.5087 3.1317 11.1885 3.81152C11.8683 4.49134 12.25 5.41359 12.25 6.375C12.25 7.33641 11.8683 8.25866 11.1885 8.93848C10.5087 9.6183 9.58641 10 8.625 10C7.66359 10 6.74134 9.6183 6.06152 8.93848C5.3817 8.25866 5 7.33641 5 6.375C5 5.41359 5.3817 4.49134 6.06152 3.81152C6.74134 3.1317 7.66359 2.75 8.625 2.75Z" fill="#3D3D3D" stroke="#3D3D3D"/>
</svg>